<?xml version="1.0" encoding="utf-8"?>
<!-- Generator: Adobe Illustrator 17.0.0, SVG Export Plug-In . SVG Version: 6.00 Build 0)  -->
<!DOCTYPE svg PUBLIC "-//W3C//DTD SVG 1.1//EN" "http://www.w3.org/Graphics/SVG/1.1/DTD/svg11.dtd">
<svg version="1.1" id="Layer_1" xmlns="http://www.w3.org/2000/svg" xmlns:xlink="http://www.w3.org/1999/xlink" x="0px" y="0px"
	 width="81.394px" height="48.606px" viewBox="0 0 81.394 48.606" enable-background="new 0 0 81.394 48.606" xml:space="preserve">
<g>
	<path fill="#91958F" d="M30.644,25.014l-1.434-0.097c-1.214,0-2.21,0.341-2.989,1.023c-0.779,0.683-1.335,1.62-1.668,2.812v12.037
		h-1.934V23.354h1.692l0.242,2.9v0.193c0.505-1.074,1.182-1.912,2.03-2.514s1.858-0.902,3.029-0.902
		c0.247,0,0.486,0.019,0.717,0.057s0.422,0.078,0.572,0.121L30.644,25.014z"/>
	<path fill="#91958F" d="M31.443,32.216c0-2.782,0.588-5.008,1.764-6.679c1.177-1.67,2.817-2.506,4.923-2.506
		c1.214,0,2.267,0.258,3.158,0.773s1.633,1.246,2.224,2.191V15.652h1.917v25.137h-1.708l-0.161-2.53
		c-0.58,0.924-1.327,1.633-2.24,2.127s-1.987,0.741-3.223,0.741c-2.084,0-3.714-0.776-4.891-2.329
		c-1.176-1.552-1.764-3.633-1.764-6.244V32.216z M33.377,32.557c0,2.115,0.421,3.798,1.265,5.049
		c0.843,1.252,2.113,1.877,3.811,1.877c1.246,0,2.285-0.28,3.118-0.841c0.832-0.561,1.479-1.338,1.941-2.331V28.09
		c-0.44-1.014-1.063-1.836-1.869-2.468c-0.806-0.631-1.858-0.947-3.158-0.947c-1.697,0-2.973,0.699-3.827,2.096
		c-0.854,1.397-1.281,3.212-1.281,5.446V32.557z"/>
	<path fill="#91958F" d="M64.881,32.216c0-2.782,0.593-5.008,1.781-6.679c1.187-1.67,2.838-2.506,4.955-2.506
		c1.235,0,2.304,0.271,3.207,0.813c0.902,0.543,1.649,1.308,2.24,2.296l0.226-2.788h1.627v17.209c0,2.245-0.62,4.018-1.861,5.317
		c-1.24,1.3-2.967,1.95-5.18,1.95c-0.838,0-1.729-0.102-2.675-0.306s-1.772-0.483-2.481-0.838l0.5-1.627
		c0.688,0.344,1.413,0.604,2.175,0.782c0.763,0.177,1.579,0.266,2.449,0.266c1.697,0,2.978-0.489,3.843-1.466
		c0.864-0.978,1.297-2.336,1.297-4.077v-2.191c-0.591,0.881-1.337,1.561-2.24,2.038c-0.902,0.478-1.955,0.717-3.158,0.717
		c-2.095,0-3.736-0.779-4.922-2.336c-1.188-1.558-1.781-3.636-1.781-6.236V32.216z M66.815,32.557c0,2.104,0.43,3.785,1.289,5.042
		s2.138,1.885,3.835,1.885c1.246,0,2.285-0.288,3.118-0.863c0.833-0.575,1.475-1.367,1.926-2.376v-8.089
		c-0.419-1.019-1.034-1.854-1.845-2.504c-0.812-0.651-1.867-0.976-3.167-0.976c-1.697,0-2.981,0.702-3.851,2.104
		c-0.87,1.403-1.305,3.215-1.305,5.437V32.557z"/>
</g>
<g>
	<g>
		<line fill="#91958F" x1="7.519" y1="2.643" x2="7.519" y2="11.643"/>
		<rect x="7.519" y="2.643" fill="#9A999A" width="1" height="9"/>
	</g>
	<g>
		<line fill="#91958F" x1="12.519" y1="2.643" x2="12.519" y2="11.643"/>
		<rect x="12.519" y="2.643" fill="#9A999A" width="1" height="9"/>
	</g>
</g>
<g>
	<g>
		<line fill="#91958F" x1="52.519" y1="11.643" x2="52.519" y2="16.643"/>
		<rect x="52.519" y="11.643" fill="#9A999A" width="1" height="5"/>
	</g>
	<g>
		<line fill="#91958F" x1="57.519" y1="11.643" x2="57.519" y2="16.643"/>
		<rect x="57.519" y="11.643" fill="#9A999A" width="1" height="5"/>
	</g>
</g>
<path fill="#91958F" d="M19.725,30.976c0,3.029-0.83,5.479-2.489,7.348c-1.66,1.869-3.886,2.804-6.679,2.804
	c-2.75,0-4.944-0.935-6.583-2.804s-2.457-4.318-2.457-7.348v-3.819c0-3.019,0.816-5.468,2.449-7.348s3.824-2.82,6.574-2.82
	c2.793,0,5.022,0.94,6.687,2.82s2.498,4.329,2.498,7.348V30.976z M17.808,27.138c0-2.539-0.642-4.583-1.925-6.132
	c-1.284-1.549-3.064-2.324-5.342-2.324c-2.234,0-3.975,0.775-5.221,2.324s-1.869,3.593-1.869,6.132v3.857
	c0,2.561,0.625,4.616,1.877,6.165s2.995,2.324,5.229,2.324c2.288,0,4.069-0.772,5.341-2.316c1.273-1.544,1.91-3.602,1.91-6.173
	V27.138z"/>
<path fill="#91958F" d="M47.84,31.814c0-2.567,0.704-4.673,2.111-6.316s3.271-2.465,5.591-2.465c2.331,0,4.2,0.822,5.607,2.465
	s2.111,3.749,2.111,6.316v0.532c0,2.578-0.701,4.687-2.103,6.324c-1.402,1.639-3.263,2.458-5.583,2.458
	c-2.342,0-4.216-0.819-5.624-2.458c-1.407-1.638-2.111-3.746-2.111-6.324V31.814z M49.773,32.337c0,2.018,0.51,3.713,1.531,5.086
	s2.444,2.06,4.27,2.06c1.794,0,3.204-0.687,4.23-2.06c1.025-1.374,1.539-3.069,1.539-5.086v-0.531c0-1.985-0.516-3.67-1.547-5.054
	s-2.449-2.076-4.254-2.076s-3.217,0.692-4.238,2.076s-1.531,3.069-1.531,5.054V32.337z"/>
</svg>
